<svg id="Capa_1" enable-background="new 0 0 512 512" height="512" viewBox="0 0 512 512" width="512" xmlns="http://www.w3.org/2000/svg"><g><circle cx="256" cy="338.605" fill="#f6e266" r="173.395"/><path d="m256 165.211c-4.295 0-8.551.162-12.768.469 89.801 6.536 160.627 81.457 160.627 172.925s-70.826 166.389-160.627 172.925c4.217.308 8.473.47 12.768.47 95.763 0 173.395-77.631 173.395-173.395 0-95.763-77.632-173.394-173.395-173.394z" fill="#ecbe6b"/><g><path d="m256 474.058c-74.689 0-135.453-60.764-135.453-135.452 0-74.689 60.764-135.453 135.453-135.453s135.453 60.764 135.453 135.453c-.001 74.688-60.764 135.452-135.453 135.452zm0-255.452c-66.168 0-120 53.832-120 120s53.832 119.999 120 119.999 120-53.831 120-119.999-53.832-120-120-120z" fill="#eab14d"/></g><g><g><path d="m253.702 403.498c-12.653 0-20.405-1.165-33.075-9.454-3.57-2.336-4.571-7.125-2.235-10.696 2.336-3.57 7.125-4.57 10.696-2.235 9.91 6.484 14.493 6.992 26.132 6.927 14.076-.094 22.244-10.591 23.877-20.304.657-3.906 1.606-17.075-13.766-22.508-17.561-6.207-27.647-11.031-34.809-16.648-7.932-6.221-11.537-17.098-9.41-28.383 2.335-12.392 10.935-22.244 22.441-25.711 23.19-6.981 42.947 5.229 43.777 5.753 3.609 2.277 4.689 7.048 2.412 10.658-2.272 3.599-7.023 4.68-10.627 2.432-.219-.135-14.843-8.944-31.106-4.045-7.126 2.146-10.722 8.524-11.712 13.777-1.054 5.595.387 10.715 3.763 13.362 7.127 5.59 19.377 10.334 30.422 14.237 17.5 6.186 26.863 21.744 23.855 39.639-2.67 15.88-16.017 33.042-39.014 33.195-.55.001-1.091.004-1.621.004z" fill="#eab14d"/></g><g><path d="m255.27 420.304c-4.268 0-7.726-3.459-7.726-7.726v-147.945c0-4.268 3.459-7.726 7.726-7.726 4.268 0 7.726 3.459 7.726 7.726v147.945c.001 4.267-3.458 7.726-7.726 7.726z" fill="#eab14d"/></g></g><path d="m312.38 83.441-53.839 53.264c-1.407 1.392-3.673 1.392-5.081 0l-53.84-53.264c-1.052-1.041-.315-2.833 1.165-2.833h22.078c3.41 0 6.175-2.764 6.175-6.175v-70.22c0-2.327 1.886-4.213 4.213-4.213h45.499c2.327 0 4.213 1.886 4.213 4.213v70.221c0 3.41 2.764 6.175 6.175 6.175h22.078c1.479-.001 2.216 1.792 1.164 2.832z" fill="#dd636e"/><g fill="#c63d4f"><path d="m261.578 74.434v-74.434h17.172c2.327 0 4.213 1.886 4.213 4.213v70.221c0 3.41 2.764 6.175 6.175 6.175h-21.384c-3.412-.001-6.176-2.765-6.176-6.175z"/><path d="m253.46 136.705-8.152-8.065 48.551-48.032h17.356c1.48 0 2.216 1.792 1.165 2.833l-53.839 53.264c-1.408 1.393-3.674 1.393-5.081 0z"/></g><g><g><g><path d="m346.975 156.752c-4.268 0-7.726-3.459-7.726-7.726v-56.31c0-4.268 3.459-7.726 7.726-7.726 4.268 0 7.726 3.459 7.726 7.726v56.309c.001 4.268-3.458 7.727-7.726 7.727z" fill="#dd636e"/></g><g><path d="m346.975 165.639c-1.706 0-3.412-.563-4.823-1.69l-22.248-17.776c-3.334-2.663-3.877-7.525-1.213-10.859 2.662-3.334 7.524-3.877 10.859-1.213l17.426 13.923 17.426-13.923c3.335-2.664 8.195-2.12 10.859 1.213 2.664 3.334 2.121 8.196-1.213 10.859l-22.248 17.776c-1.412 1.127-3.118 1.69-4.825 1.69z" fill="#dd636e"/></g></g><g><g><path d="m165.025 156.752c-4.268 0-7.726-3.459-7.726-7.726v-56.31c0-4.268 3.459-7.726 7.726-7.726s7.726 3.459 7.726 7.726v56.309c0 4.268-3.459 7.727-7.726 7.727z" fill="#dd636e"/></g><g><path d="m165.025 165.639c-1.706 0-3.412-.563-4.823-1.69l-22.248-17.776c-3.334-2.663-3.877-7.525-1.213-10.859 2.662-3.334 7.524-3.877 10.859-1.213l17.426 13.923 17.426-13.923c3.335-2.664 8.195-2.12 10.859 1.213 2.664 3.334 2.121 8.196-1.213 10.859l-22.248 17.776c-1.413 1.127-3.119 1.69-4.825 1.69z" fill="#dd636e"/></g></g></g></g></svg>