<svg id="Capa_1" enable-background="new 0 0 512 512" height="512" viewBox="0 0 512 512" width="512" xmlns="http://www.w3.org/2000/svg"><g><g><path d="m228.448 193.458.167-.426-96.215-37.16c2.719-7.04 28.872-70.943 111.65-153.648.263-.262.619-.41.99-.409.371 0 .727.149.989.412l71.78 72.104c-67.932 67.626-89.155 118.62-89.361 119.127z" fill="#78c2a4"/></g><path d="m275.554 31.884c-60.773 67.937-81.172 117.816-83.556 123.988l46.613 18.003c12.143-20.936 36.397-56.936 79.198-99.545z" fill="#66b394"/><g><path d="m324.67 193.458.167-.426-96.215-37.16c2.719-7.04 28.872-70.943 111.65-153.648.263-.262.619-.41.99-.409s.727.149.989.412l71.78 72.104c-67.932 67.626-89.155 118.62-89.361 119.127z" fill="#78c2a4"/></g><path d="m373.573 33.689c-59.523 67.013-79.588 116.067-81.951 122.184l43.837 16.93c12.341-21.08 36.494-56.582 78.574-98.472z" fill="#66b394"/><g><path d="m420.893 193.458.167-.426-96.215-37.16c2.719-7.04 28.872-70.943 111.65-153.648.263-.262.619-.41.99-.409.371 0 .727.149.989.412l70.794 71.114c.544.547.543 1.43-.002 1.976-67.15 67.135-88.168 117.636-88.373 118.141z" fill="#78c2a4"/></g><path d="m509.266 75.316c.545-.545.547-1.429.003-1.975l-16.915-16.991c-61.441 62.223-88.202 111.464-95.843 127.201l24.549 9.481-.167.426c.205-.505 21.223-51.006 88.373-118.142z" fill="#66b394"/><circle cx="158.149" cy="109.064" fill="#f6e266" r="62.278"/><path d="m158.149 46.786c-4.367 0-8.628.454-12.741 1.309 28.283 5.881 49.537 30.941 49.537 60.969s-21.253 55.088-49.537 60.969c4.113.855 8.374 1.309 12.741 1.309 34.395 0 62.278-27.883 62.278-62.278s-27.883-62.278-62.278-62.278z" fill="#ecbe6b"/><path d="m492.679 438.623c0 22.254-18.04 40.294-40.294 40.294h-362.471c-4.835 0-8.755-3.92-8.755-8.755v-315.285c0-4.835 3.92-8.755 8.755-8.755h362.471c22.254 0 40.294 18.04 40.294 40.294z" fill="#aa7a63"/><path d="m492.679 186.417c0-22.254-18.04-40.294-40.294-40.294h-25.311c22.254 0 40.294 18.04 40.294 40.294v252.206c0 22.254-18.04 40.294-40.294 40.294h25.311c22.254 0 40.294-18.04 40.294-40.294z" fill="#986b54"/><path d="m499.395 340.312h-26.838c-15.349 0-27.792-12.443-27.792-27.792 0-15.349 12.443-27.792 27.792-27.792h26.838c6.961 0 12.605 5.643 12.605 12.605v30.374c0 6.961-5.643 12.605-12.605 12.605z" fill="#365e7d"/><path d="m499.395 284.728h-19.321c6.961 0 12.605 5.643 12.605 12.605v30.374c0 6.961-5.643 12.605-12.605 12.605h19.321c6.961 0 12.605-5.643 12.605-12.605v-30.374c0-6.962-5.643-12.605-12.605-12.605z" fill="#2b4d66"/><g><path d="m470.649 320.245c-4.93 0-8.527-4.551-7.572-9.24 1.961-9.175 15.309-7.655 15.309 1.514-.001 4.177-3.401 7.726-7.737 7.726z" fill="#ecf4ff"/></g><g><g><g><path d="m135.711 190.727h-12.043c-4.268 0-7.726-3.459-7.726-7.726s3.459-7.726 7.726-7.726h12.043c4.268 0 7.726 3.459 7.726 7.726s-3.458 7.726-7.726 7.726z" fill="#2b4d66"/></g><g><path d="m385.487 190.727h-24.744c-4.268 0-7.726-3.459-7.726-7.726s3.459-7.726 7.726-7.726h24.744c4.268 0 7.726 3.459 7.726 7.726s-3.459 7.726-7.726 7.726zm-61.863 0h-24.744c-4.268 0-7.726-3.459-7.726-7.726s3.459-7.726 7.726-7.726h24.744c4.268 0 7.726 3.459 7.726 7.726s-3.458 7.726-7.726 7.726zm-61.861 0h-24.744c-4.268 0-7.726-3.459-7.726-7.726s3.459-7.726 7.726-7.726h24.744c4.268 0 7.726 3.459 7.726 7.726s-3.458 7.726-7.726 7.726zm-61.862 0h-24.744c-4.268 0-7.726-3.459-7.726-7.726s3.459-7.726 7.726-7.726h24.744c4.268 0 7.726 3.459 7.726 7.726s-3.458 7.726-7.726 7.726z" fill="#2b4d66"/></g><g><path d="m450.171 190.727h-12.043c-4.268 0-7.726-3.459-7.726-7.726s3.459-7.726 7.726-7.726h12.043c4.268 0 7.726 3.459 7.726 7.726s-3.459 7.726-7.726 7.726z" fill="#2b4d66"/></g></g><g><g><path d="m450.171 449.765h-12.043c-4.268 0-7.726-3.459-7.726-7.726s3.459-7.726 7.726-7.726h12.043c4.268 0 7.726 3.459 7.726 7.726s-3.459 7.726-7.726 7.726z" fill="#2b4d66"/></g><g><path d="m398.682 449.765h-24.744c-4.268 0-7.726-3.459-7.726-7.726s3.459-7.726 7.726-7.726h24.744c4.268 0 7.726 3.459 7.726 7.726s-3.459 7.726-7.726 7.726zm-61.862 0h-24.744c-4.268 0-7.726-3.459-7.726-7.726s3.459-7.726 7.726-7.726h24.744c4.268 0 7.726 3.459 7.726 7.726s-3.459 7.726-7.726 7.726zm-61.862 0h-24.744c-4.268 0-7.726-3.459-7.726-7.726s3.459-7.726 7.726-7.726h24.744c4.268 0 7.726 3.459 7.726 7.726s-3.458 7.726-7.726 7.726z" fill="#2b4d66"/></g></g></g><path d="m200.773 510.185h-99.345c-7.117 0-12.886-5.769-12.886-12.886v-14.741c0-7.117 5.769-12.886 12.886-12.886h99.345c7.117 0 12.886 5.769 12.886 12.886v14.741c0 7.117-5.769 12.886-12.886 12.886z" fill="#eab14d"/><path d="m200.773 469.673h-20.599c7.117 0 12.886 5.769 12.886 12.886v14.741c0 7.117-5.769 12.886-12.886 12.886h20.599c7.117 0 12.886-5.769 12.886-12.886v-14.741c0-7.117-5.769-12.886-12.886-12.886z" fill="#e49542"/><path d="m200.773 469.673h-99.345c-7.117 0-12.886-5.769-12.886-12.886v-14.741c0-7.117 5.769-12.886 12.886-12.886h99.345c7.117 0 12.886 5.769 12.886 12.886v14.741c0 7.117-5.769 12.886-12.886 12.886z" fill="#f6e266"/><path d="m200.773 429.16h-20.599c7.117 0 12.886 5.769 12.886 12.886v14.741c0 7.117-5.769 12.886-12.886 12.886h20.599c7.117 0 12.886-5.769 12.886-12.886v-14.741c0-7.117-5.769-12.886-12.886-12.886z" fill="#ecbe6b"/><circle cx="67.943" cy="442.242" fill="#f6e266" r="67.943"/><path d="m67.943 374.298c-4.764 0-9.413.495-13.9 1.428 30.856 6.416 54.043 33.756 54.043 66.515 0 32.76-23.187 60.099-54.043 66.515 4.488.933 9.136 1.428 13.9 1.428 37.524 0 67.943-30.419 67.943-67.943.001-37.523-30.419-67.943-67.943-67.943z" fill="#ecbe6b"/></g></svg>